<svg width="557" height="558" xmlns="http://www.w3.org/2000/svg" xmlns:xlink="http://www.w3.org/1999/xlink" xml:space="preserve" overflow="hidden"><g transform="translate(-526 -100)"><path d="M116.042 81.2292 81.2292 81.2292 81.2292 475.771 475.771 475.771 475.771 440.958 116.042 440.958 116.042 81.2292Z" stroke="#156082" stroke-width="14.4497" fill="#156082" transform="matrix(1 0 0 1.0018 526 100)"/><path d="M197.271 388.74C197.271 401.557 186.88 411.948 174.062 411.948 161.245 411.948 150.854 401.557 150.854 388.74 150.854 375.922 161.245 365.531 174.062 365.531 186.88 365.531 197.271 375.922 197.271 388.74Z" stroke="#156082" stroke-width="14.4497" fill="#156082" transform="matrix(1 0 0 1.0018 526 100)"/><path d="M220.479 313.312C220.479 326.13 210.088 336.521 197.271 336.521 184.453 336.521 174.062 326.13 174.062 313.312 174.062 300.495 184.453 290.104 197.271 290.104 210.088 290.104 220.479 300.495 220.479 313.312Z" stroke="#156082" stroke-width="14.4497" fill="#156082" transform="matrix(1 0 0 1.0018 526 100)"/><path d="M301.708 324.917C301.708 337.734 291.318 348.125 278.5 348.125 265.682 348.125 255.292 337.734 255.292 324.917 255.292 312.099 265.682 301.708 278.5 301.708 291.318 301.708 301.708 312.099 301.708 324.917Z" stroke="#156082" stroke-width="14.4497" fill="#156082" transform="matrix(1 0 0 1.0018 526 100)"/><path d="M301.708 243.688C301.708 256.505 291.318 266.896 278.5 266.896 265.682 266.896 255.292 256.505 255.292 243.688 255.292 230.87 265.682 220.479 278.5 220.479 291.318 220.479 301.708 230.87 301.708 243.688Z" stroke="#156082" stroke-width="14.4497" fill="#156082" transform="matrix(1 0 0 1.0018 526 100)"/><path d="M377.135 220.479C377.135 233.297 366.745 243.688 353.927 243.688 341.109 243.688 330.719 233.297 330.719 220.479 330.719 207.662 341.109 197.271 353.927 197.271 366.745 197.271 377.135 207.662 377.135 220.479Z" stroke="#156082" stroke-width="14.4497" fill="#156082" transform="matrix(1 0 0 1.0018 526 100)"/><path d="M458.365 220.479C458.365 233.297 447.974 243.688 435.156 243.688 422.339 243.688 411.948 233.297 411.948 220.479 411.948 207.662 422.339 197.271 435.156 197.271 447.974 197.271 458.365 207.662 458.365 220.479Z" stroke="#156082" stroke-width="14.4497" fill="#156082" transform="matrix(1 0 0 1.0018 526 100)"/><path d="M458.365 133.448C458.365 146.266 447.974 156.656 435.156 156.656 422.339 156.656 411.948 146.266 411.948 133.448 411.948 120.63 422.339 110.24 435.156 110.24 447.974 110.24 458.365 120.63 458.365 133.448Z" stroke="#156082" stroke-width="14.4497" fill="#156082" transform="matrix(1 0 0 1.0018 526 100)"/></g></svg>