<svg width="96" height="96" xmlns="http://www.w3.org/2000/svg" xmlns:xlink="http://www.w3.org/1999/xlink" xml:space="preserve" overflow="hidden"><g transform="translate(-338 -488)"><path d="M386 544C381.582 544 378 540.418 378 536 378 531.582 381.582 528 386 528 390.418 528 394 531.582 394 536 394 540.418 390.418 544 386 544ZM386 532C383.791 532 382 533.791 382 536 382 538.209 383.791 540 386 540 388.209 540 390 538.209 390 536 390 533.791 388.209 532 386 532Z"/><path d="M421 534C419.951 516.227 405.773 502.049 388 501L388 495 384 495 384 501C366.227 502.049 352.049 516.227 351 534L345 534 345 538 351 538C352.049 555.773 366.227 569.951 384 571L384 577 388 577 388 571C405.773 569.951 419.951 555.773 421 538L427 538 427 534ZM406.16 538C405.199 547.603 397.603 555.199 388 556.16L388 548 384 548 384 556.16C374.397 555.199 366.801 547.603 365.84 538L374 538 374 534 365.84 534C366.801 524.397 374.397 516.801 384 515.84L384 524 388 524 388 515.84C397.603 516.801 405.199 524.397 406.16 534L398 534 398 538ZM384 507 384 511.83C372.189 512.822 362.817 522.19 361.82 534L357 534C358.028 519.536 369.536 508.028 384 507ZM357 538 361.83 538C362.822 549.811 372.19 559.183 384 560.18L384 565C369.536 563.972 358.028 552.464 357 538ZM388 565 388 560.18C399.814 559.187 409.187 549.814 410.18 538L415 538C413.972 552.464 402.464 563.972 388 565ZM410.18 534C409.187 522.186 399.814 512.813 388 511.82L388 507C402.464 508.028 413.972 519.536 415 534Z"/></g></svg>