<svg width="96" height="96" xmlns="http://www.w3.org/2000/svg" xmlns:xlink="http://www.w3.org/1999/xlink" xml:space="preserve" overflow="hidden"><g transform="translate(-207 -462)"><path d="M285.5 479.5 284.5 470.5 273.5 481.5 274.1 486.7 258.1 502.7C256.7 502 255.1 501.5 253.4 501.5 247.9 501.5 243.4 506 243.4 511.5 243.4 517 247.9 521.5 253.4 521.5 258.9 521.5 263.4 517 263.4 511.5 263.4 509.8 263 508.3 262.3 506.9L278.3 490.9 283.5 491.5 294.5 480.5 285.5 479.5Z" fill="#002060"/><path d="M286.3 494.3 285 495.7 283.1 495.5 281 495.2C283.8 500 285.5 505.5 285.5 511.5 285.5 529.1 271.1 543.5 253.5 543.5 235.9 543.5 221.5 529.1 221.5 511.5 221.5 493.9 235.9 479.5 253.5 479.5 259.4 479.5 265 481.1 269.8 484L269.6 482 269.3 480 270.7 478.6 271.4 477.9C266 475.1 260 473.5 253.5 473.5 232.5 473.5 215.5 490.5 215.5 511.5 215.5 532.5 232.5 549.5 253.5 549.5 274.5 549.5 291.5 532.5 291.5 511.5 291.5 505 289.9 499 287 493.7L286.3 494.3Z" fill="#002060"/><path d="M270.2 504.7C271.1 506.8 271.5 509.1 271.5 511.5 271.5 521.4 263.4 529.5 253.5 529.5 243.6 529.5 235.5 521.4 235.5 511.5 235.5 501.6 243.6 493.5 253.5 493.5 255.9 493.5 258.2 494 260.3 494.8L264.8 490.3C261.4 488.5 257.6 487.5 253.5 487.5 240.3 487.5 229.5 498.3 229.5 511.5 229.5 524.7 240.3 535.5 253.5 535.5 266.7 535.5 277.5 524.7 277.5 511.5 277.5 507.4 276.5 503.6 274.7 500.2L270.2 504.7Z" fill="#002060"/></g></svg>