<svg width="345" height="346" xmlns="http://www.w3.org/2000/svg" xmlns:xlink="http://www.w3.org/1999/xlink" xml:space="preserve" overflow="hidden"><g transform="translate(-32 -355)"><path d="M192.984 172.5C192.984 184.409 183.331 194.062 171.422 194.062 159.513 194.062 149.859 184.409 149.859 172.5 149.859 160.591 159.513 150.938 171.422 150.938 183.331 150.938 192.984 160.591 192.984 172.5Z" stroke="#156082" stroke-width="3.59375" fill="#156082" transform="matrix(1 0 0 1.0029 32 355)"/><path d="M297.922 100.625C291.812 90.2031 278.156 85.1719 259.469 85.1719 247.609 85.1719 233.953 87.3281 218.859 91.2812 208.438 53.5469 191.188 28.75 171.422 28.75 152.016 28.75 134.406 53.1875 124.344 90.5625 109.969 86.9688 97.0312 84.8125 85.5312 84.8125 66.8438 84.8125 53.1875 89.8438 47.0781 100.266 37.0156 117.516 50.3125 145.188 77.9844 173.219 51.3906 200.531 39.1719 227.125 48.875 244.016 54.9844 254.438 68.6406 259.469 87.3281 259.469 98.1094 259.469 110.688 257.672 124.344 254.438 134.766 291.812 152.016 316.25 171.422 316.25 190.828 316.25 208.438 291.812 218.5 254.438 232.875 258.031 245.812 260.188 257.312 260.188 276 260.188 289.656 255.156 295.766 244.734 305.469 227.844 293.25 201.25 266.656 173.938 295.047 145.547 307.984 117.875 297.922 100.625ZM259.469 99.5469C272.766 99.5469 282.469 102.781 285.344 107.812 290.734 117.156 281.031 139.078 256.594 163.516 247.969 155.609 238.266 147.703 227.484 140.156 226.406 127.937 224.609 116.078 222.094 104.938 235.75 101.344 248.687 99.5469 259.469 99.5469ZM195.141 209.875C187.594 214.188 180.047 218.141 172.5 221.734 164.953 218.141 157.406 214.188 149.859 209.875 142.672 205.562 135.484 201.25 129.016 196.938 128.297 189.031 128.297 181.125 128.297 172.5 128.297 164.594 128.656 157.047 129.016 149.5 136.203 144.469 143.75 139.797 152.016 135.125 158.844 131.172 165.672 127.578 172.5 124.344 179.328 127.578 186.156 131.172 192.984 135.125 200.172 139.438 207.359 143.75 213.828 148.062 214.547 155.969 214.547 163.875 214.547 172.5 214.547 181.484 214.188 190.109 213.469 198.375 207.719 202.328 201.609 205.922 195.141 209.875ZM211.672 216.703C210.594 223.531 209.516 230.359 208.438 236.469 202.328 234.312 195.859 232.156 189.391 229.281 193.703 227.125 198.016 224.609 202.328 222.094 205.562 220.297 208.797 218.5 211.672 216.703ZM155.609 229.281C148.422 232.156 141.594 234.672 134.766 236.828 133.328 230 132.25 222.812 131.172 215.266 135.125 217.781 138.719 219.938 143.031 222.453 146.984 224.609 151.297 227.125 155.609 229.281ZM114.281 186.156C108.531 181.844 103.5 177.531 98.8281 173.219 103.5 168.906 108.891 164.594 114.281 160.281 114.281 164.234 113.922 168.188 113.922 172.5 113.922 177.172 113.922 181.844 114.281 186.156ZM130.812 131.172C131.891 123.266 132.969 115.719 134.406 108.531 141.234 110.688 148.422 113.562 155.609 116.438 152.016 118.234 148.062 120.391 144.469 122.547 140.156 125.422 135.484 128.297 130.812 131.172ZM189.031 116.438C195.5 113.562 201.969 111.406 208.438 109.25 209.875 115.719 210.953 122.547 212.031 129.734 208.078 127.219 204.484 125.062 200.172 122.547 196.578 120.75 192.984 118.594 189.031 116.438ZM228.562 158.844C235.031 163.875 240.781 168.547 246.172 173.578 240.781 178.25 235.031 183.281 228.562 187.953 228.922 182.922 228.922 177.891 228.922 172.859 228.922 167.828 228.922 163.156 228.562 158.844ZM171.422 43.125C182.203 43.125 196.219 62.1719 205.203 95.2344 194.781 98.8281 183.641 103.141 172.5 108.172 160.641 102.781 149.141 98.1094 138 94.5156 146.984 61.8125 160.641 43.125 171.422 43.125ZM59.2969 107.812C62.5312 102.422 71.875 99.5469 85.1719 99.5469 95.5938 99.5469 107.453 101.344 120.391 104.578 117.875 116.078 116.078 128.656 115 141.594 104.938 148.781 95.9531 155.969 88.0469 163.516 63.9687 139.078 53.9062 117.156 59.2969 107.812ZM87.3281 245.453C74.0312 245.453 64.3281 242.219 61.4531 237.188 56.0625 227.844 65.4062 207 88.4062 183.281 96.6719 190.469 105.656 197.656 115.359 204.844 116.438 217.422 118.234 229.641 120.75 240.781 108.891 244.016 97.3906 245.453 87.3281 245.453ZM171.422 301.875C160.641 301.875 146.984 283.188 138 250.844 149.141 247.25 160.641 242.938 172.5 237.547 183.641 242.578 194.422 246.891 204.844 250.125 195.859 283.188 182.203 301.875 171.422 301.875ZM283.547 237.188C280.312 242.578 270.969 245.453 257.672 245.453 247.25 245.453 235.031 243.656 222.453 240.422 224.609 229.641 226.406 218.5 227.484 206.281 238.266 198.734 247.969 191.188 256.594 183.281 279.594 207 288.938 227.844 283.547 237.188Z" stroke="#156082" stroke-width="3.59375" fill="#156082" transform="matrix(1 0 0 1.0029 32 355)"/></g></svg>