<svg width="96" height="96" xmlns="http://www.w3.org/2000/svg" xmlns:xlink="http://www.w3.org/1999/xlink" xml:space="preserve" overflow="hidden"><g transform="translate(-163 -320)"><path d="M209 342C209 345.314 206.314 348 203 348 199.686 348 197 345.314 197 342 197 338.686 199.686 336 203 336 206.314 336 209 338.686 209 342Z" fill="#002060"/><path d="M203 327C203 328.657 201.657 330 200 330 198.343 330 197 328.657 197 327 197 325.343 198.343 324 200 324 201.657 324 203 325.343 203 327Z" fill="#002060"/><path d="M220 345C220 346.657 218.657 348 217 348 215.343 348 214 346.657 214 345 214 343.343 215.343 342 217 342 218.657 342 220 343.343 220 345Z" fill="#002060"/><path d="M223 332C223 334.209 221.209 336 219 336 216.791 336 215 334.209 215 332 215 329.791 216.791 328 219 328 221.209 328 223 329.791 223 332Z" fill="#002060"/><path d="M238.9 352.5C238.7 351.6 237.9 351 237 351L185 351C184.1 351 183.3 351.6 183.1 352.5 182.9 353.4 183.3 354.3 184.1 354.7 184.1 354.7 187.1 356.4 187.1 360L187.1 406C187.1 409.3 189.8 412 193.1 412L229.1 412C232.4 412 235.1 409.3 235.1 406L235.1 360C235.1 356.4 237.9 354.8 238 354.8 238.7 354.3 239.2 353.4 238.9 352.5ZM225 404 213 404 213 400 225 400 225 404ZM225 396 213 396 213 392 225 392 225 396ZM225 388 213 388 213 384 225 384 225 388ZM225 380 213 380 213 376 225 376 225 380ZM225 372 213 372 213 368 225 368 225 372ZM231 360 231 361.9C227.9 360.7 222.9 359 218 359 212.6 359 209.3 359.9 205.9 360.8 202.2 361.8 198.3 362.8 191 363L191 360C191 358 190.4 356.3 189.7 355L232.3 355C231.6 356.3 231 358 231 360Z" fill="#002060"/></g></svg>