<svg width="96" height="96" xmlns="http://www.w3.org/2000/svg" xmlns:xlink="http://www.w3.org/1999/xlink" xml:space="preserve" overflow="hidden"><g transform="translate(-287 -242)"><path d="M315.6 322.6 309 307.7 309 297.6C309.023 296.377 309.663 295.248 310.7 294.6 311.242 294.353 311.482 293.714 311.236 293.171 311.225 293.147 311.213 293.123 311.2 293.1 311.018 292.668 310.562 292.42 310.1 292.5L298.7 292.5C298.077 292.462 297.54 292.936 297.502 293.56 297.501 293.573 297.5 293.586 297.5 293.6 297.465 294.053 297.7 294.484 298.1 294.7 299.169 295.317 299.82 296.466 299.8 297.7L299.8 307.8 293.3 322.6C292.527 324.271 293.254 326.251 294.924 327.025 294.982 327.052 295.041 327.077 295.1 327.1 295.538 327.305 296.017 327.407 296.5 327.4L312.5 327.4C314.362 327.415 315.884 325.919 315.9 324.056 315.9 324.038 315.9 324.019 315.9 324 315.907 323.517 315.805 323.038 315.6 322.6ZM306.7 297.6 306.7 299.9 302.2 299.9 302.2 297.6C302.231 296.575 301.952 295.564 301.4 294.7L307.5 294.7C306.992 295.583 306.717 296.581 306.7 297.6Z"/><path d="M362.3 299.479C359.166 296.818 354.87 294.528 348.869 292.302 350.977 292.073 353.044 291.559 355.013 290.773 355.013 290.773 352.752 289.42 351.35 283.882 350.461 280.403 353.863 271.705 353.892 265.582 353.892 260.682 352.5 258.489 349.872 257.001 348.354 256.14 344.856 256.933 344.856 256.933 344.856 256.933 343.047 253.508 337 251.623 332.028 250.269 326.722 250.947 322.25 253.508 318.51 255.924 316.702 258.582 316.615 267.724 316.538 276.103 317.688 283.544 317.157 287.052 316.912 288.994 316.173 290.841 315.011 292.416 316.847 292.57 318.691 292.61 320.532 292.536 317.212 293.739 314.019 295.268 311 297.1L311 301.967C314.082 299.707 317.471 297.901 321.065 296.603L319.145 305.182C318.964 305.99 319.472 306.793 320.281 306.974 320.388 306.998 320.499 307.01 320.609 307.01L324.249 307.01 322.33 310.71C321.983 311.379 322.186 312.2 322.804 312.631L333.51 320.1 333.51 325.989C328.261 325.949 323.02 325.579 317.818 324.88 317.589 326.39 316.72 327.728 315.433 328.551 322.002 329.602 328.647 330.105 335.3 330.056 348.1 330.056 360.8 328.4 365.2 325.1L366 324.5 366 306.961C365.891 304.053 364.545 301.331 362.3 299.479ZM342 306.2 344.447 310.925 337.663 315.655 343.834 294.855 345.734 295.823 347.565 304.013 343.335 304.013C342.507 304.012 341.834 304.683 341.833 305.511 341.833 305.751 341.89 305.987 342 306.2ZM323.009 275 323.009 269.942C323.497 269.913 323.982 269.854 324.463 269.768 327.818 269.326 331.092 268.404 334.185 267.032 337.662 265.284 339.656 264.426 342.541 261.813 342.922 261.439 343.534 261.445 343.909 261.826 344.05 261.97 344.143 262.155 344.174 262.355 344.404 263.944 345.002 267.443 345.798 268.839 346.157 269.525 346.562 270.186 347.01 270.818L347.01 275C347.003 281.624 341.634 286.993 335.01 287L335.01 287C328.385 286.993 323.016 281.625 323.009 275ZM325.6 310.927 328.051 306.2C328.432 305.464 328.145 304.559 327.409 304.178 327.196 304.068 326.959 304.01 326.719 304.01L322.486 304.01 324.318 295.82 326.218 294.852 332.389 315.652ZM335.025 314.005 328.58 292.272C328.566 292.235 328.551 292.198 328.533 292.162 328.841 291.5 329.001 290.778 329 290.048L329 289.823C332.848 291.394 337.158 291.394 341.006 289.823L341.006 290.045C341.005 290.794 341.173 291.535 341.496 292.211 341.489 292.231 341.478 292.249 341.472 292.269ZM362 322.41C357.775 324.734 347.3 325.924 336.506 325.994L336.506 320.122 347.241 312.636C347.859 312.205 348.062 311.383 347.715 310.715L345.797 307.015 349.435 307.015C350.263 307.016 350.936 306.345 350.937 305.517 350.937 305.405 350.925 305.293 350.9 305.184L348.988 296.635C352.856 298.005 356.476 299.995 359.706 302.527 361.078 303.619 361.914 305.249 362 307Z"/><path d="M307.304 278.7C307.304 279.639 306.543 280.4 305.604 280.4 304.665 280.4 303.904 279.639 303.904 278.7 303.904 277.761 304.665 277 305.604 277 306.543 277 307.304 277.761 307.304 278.7Z"/><path d="M306.8 283.9C306.8 284.839 307.561 285.6 308.5 285.6 309.439 285.6 310.2 284.839 310.2 283.9 310.2 282.961 309.439 282.2 308.5 282.2 307.561 282.2 306.8 282.961 306.8 283.9Z"/><path d="M302.2 284.4C303.139 284.4 303.9 283.639 303.9 282.7 303.9 281.761 303.139 281 302.2 281 301.261 281 300.5 281.761 300.5 282.7 300.5 283.639 301.261 284.4 302.2 284.4Z"/><path d="M301 289C301 290.27 302.03 291.3 303.3 291.3 304.57 291.3 305.6 290.27 305.6 289 305.6 287.73 304.57 286.7 303.3 286.7 302.03 286.7 301 287.73 301 289Z"/></g></svg>