<svg width="96" height="96" xmlns="http://www.w3.org/2000/svg" xmlns:xlink="http://www.w3.org/1999/xlink" xml:space="preserve" overflow="hidden"><g transform="translate(-631 -240)"><path d="M659.6 320.6 653 305.7 653 295.6C653.023 294.377 653.663 293.248 654.7 292.6 655.242 292.353 655.482 291.714 655.236 291.171 655.225 291.147 655.213 291.123 655.2 291.1 655.018 290.668 654.562 290.42 654.1 290.5L642.7 290.5C642.076 290.462 641.54 290.936 641.502 291.56 641.501 291.573 641.5 291.586 641.5 291.6 641.465 292.053 641.7 292.484 642.1 292.7 643.169 293.317 643.82 294.466 643.8 295.7L643.8 305.8 637.3 320.6C636.527 322.271 637.254 324.251 638.924 325.025 638.982 325.052 639.041 325.077 639.1 325.1 639.538 325.305 640.017 325.407 640.5 325.4L656.5 325.4C658.362 325.415 659.885 323.919 659.9 322.056 659.9 322.038 659.9 322.019 659.9 322 659.907 321.517 659.805 321.038 659.6 320.6ZM650.7 295.6 650.7 297.9 646.2 297.9 646.2 295.6C646.231 294.575 645.952 293.564 645.4 292.7L651.5 292.7C650.992 293.583 650.717 294.581 650.7 295.6Z" fill="#002060"/><path d="M707.269 297.456C703.529 294.395 699.132 292.506 694.516 290.856L689.627 288.85C689.252 288.696 689.008 288.33 689.008 287.925L689.008 285.475C692.711 282.511 694.905 278.054 694.994 273.312L697.542 268.941C697.924 268.04 698.077 267.059 697.988 266.084 697.408 259.53 693.434 253.761 687.517 250.884 687.04 250.66 686.48 250.71 686.051 251.015L685.041 251.715 683.924 250.2C683.58 249.718 683.063 249.389 682.481 249.281 681.44 249.097 680.385 249.003 679.328 249 670.321 249.001 662.589 255.41 660.918 264.261L660.878 264.478C660.393 267.075 659.387 269.547 657.922 271.745L663.01 271.745 663.01 273C663.01 277.85 665.214 282.437 669 285.468L669 287.924C669 288.329 668.755 288.695 668.38 288.849L663.463 290.867C660.543 291.862 657.712 293.103 655 294.574L655 299.279C657.475 297.671 660.126 296.351 662.9 295.344L661.145 303.184C660.964 303.992 661.472 304.794 662.281 304.976 662.388 305 662.499 305.012 662.609 305.012L666.249 305.012 664.33 308.712C663.992 309.365 664.177 310.167 664.767 310.606L677.54 320.09 677.54 323.99C672.28 323.953 667.026 323.614 661.804 322.975 661.536 324.515 660.601 325.857 659.25 326.642 665.881 327.63 672.579 328.105 679.284 328.062 692.584 328.062 705.791 326.404 710.199 323.097L710.999 322.497 710.999 304.961C710.946 302.026 709.576 299.271 707.269 297.456ZM689.524 293.523C689.63 293.436 689.739 293.35 689.838 293.259L690.777 293.645 691.789 294.06 693.567 302.012 689.336 302.012C688.508 302.01 687.835 302.681 687.833 303.509 687.832 303.749 687.89 303.986 688 304.2L690.465 308.96 682.012 315.237ZM667.01 273 667.01 271.746 673.979 271.746C684.259 271.746 682.861 263.553 687.359 262.38 688.595 262.15 689.872 262.314 691.01 262.85L691.01 273C691.01 279.627 685.637 285 679.01 285 672.383 285 667.01 279.627 667.01 273ZM679.01 289C681.067 288.999 683.105 288.6 685.01 287.823L685.01 287.923C685.007 289.414 685.671 290.827 686.821 291.776 684.423 293.059 681.732 293.696 679.013 293.625 676.292 293.697 673.599 293.058 671.2 291.772 672.345 290.823 673.005 289.411 673 287.924L673 287.824C674.908 288.602 676.949 289.001 679.01 289ZM667.585 308.962 670.051 304.202C670.432 303.466 670.145 302.561 669.409 302.18 669.196 302.07 668.959 302.012 668.719 302.012L664.486 302.012 666.269 294.04 667.236 293.64 668.179 293.253C668.295 293.353 668.42 293.459 668.544 293.56L676.044 315.236ZM679.027 314.7 672.427 295.6C676.725 296.97 681.343 296.965 685.638 295.585ZM707 320.407C702.722 322.737 691.8 323.93 680.544 324L680.544 320.068 693.282 310.609C693.873 310.171 694.058 309.368 693.72 308.715L691.802 305.015 695.44 305.015C696.268 305.013 696.939 304.34 696.937 303.512 696.937 303.402 696.924 303.292 696.9 303.184L695.151 295.362C698.612 296.579 701.858 298.339 704.765 300.578 706.135 301.643 706.955 303.266 707 305Z" fill="#002060"/><path d="M649.6 278.4C650.539 278.4 651.3 277.639 651.3 276.7 651.3 275.761 650.539 275 649.6 275 648.661 275 647.9 275.761 647.9 276.7 647.9 277.639 648.661 278.4 649.6 278.4Z" fill="#002060"/><path d="M650.8 281.9C650.8 282.839 651.561 283.6 652.5 283.6 653.439 283.6 654.2 282.839 654.2 281.9 654.2 280.961 653.439 280.2 652.5 280.2 651.561 280.2 650.8 280.961 650.8 281.9Z" fill="#002060"/><path d="M646.2 282.4C647.139 282.4 647.9 281.639 647.9 280.7 647.9 279.761 647.139 279 646.2 279 645.261 279 644.5 279.761 644.5 280.7 644.5 281.639 645.261 282.4 646.2 282.4Z" fill="#002060"/><path d="M645 287C645 288.27 646.03 289.3 647.3 289.3 648.57 289.3 649.6 288.27 649.6 287 649.6 285.73 648.57 284.7 647.3 284.7 646.03 284.7 645 285.73 645 287Z" fill="#002060"/></g></svg>