<svg width="96" height="96" xmlns="http://www.w3.org/2000/svg" xmlns:xlink="http://www.w3.org/1999/xlink" xml:space="preserve" overflow="hidden"><g transform="translate(-191 -188)"><path d="M244 195C244 196.657 242.657 198 241 198 239.343 198 238 196.657 238 195 238 193.343 239.343 192 241 192 242.657 192 244 193.343 244 195Z" fill="#002060"/><path d="M249 204C249 205.657 247.657 207 246 207 244.343 207 243 205.657 243 204 243 202.343 244.343 201 246 201 247.657 201 249 202.343 249 204Z" fill="#002060"/><path d="M238 202C238 203.657 236.657 205 235 205 233.343 205 232 203.657 232 202 232 200.343 233.343 199 235 199 236.657 199 238 200.343 238 202Z" fill="#002060"/><path d="M241 213C241 215.209 239.209 217 237 217 234.791 217 233 215.209 233 213 233 210.791 234.791 209 237 209 239.209 209 241 210.791 241 213Z" fill="#002060"/><path d="M258.5 271.6 247 245.6 247 228C247 224.4 249.9 222.9 250 222.8 251 222.3 251.4 221.1 250.9 220.1 250.5 219.4 249.8 219 249 219L249 219 229 219 229 219C228.2 219 227.5 219.4 227.1 220.1 226.6 221.1 227 222.3 228 222.8 228 222.8 231 224.4 231 228L231 245.6 219.5 271.6C218.7 273.5 218.9 275.6 220 277.3 221.1 279 223 280 225 280L253 280C255 280 256.9 279 258 277.3 259.1 275.6 259.3 273.5 258.5 271.6ZM243 228 243 232 235 232 235 228C235 225.9 234.4 224.3 233.7 223L244.4 223C243.6 224.3 243 225.9 243 228Z" fill="#002060"/></g></svg>