<svg width="187" height="188" xmlns="http://www.w3.org/2000/svg" xmlns:xlink="http://www.w3.org/1999/xlink" xml:space="preserve" overflow="hidden"><g transform="translate(-562 -82)"><path d="M38.9583 27.2708 27.2708 27.2708 27.2708 159.729 159.729 159.729 159.729 148.042 38.9583 148.042 38.9583 27.2708Z" stroke="#5B9BD5" stroke-width="1.94792" fill="#5B9BD5" transform="matrix(1 0 0 1.00535 562 82)"/><path d="M66.2292 130.51C66.2292 134.814 62.7407 138.302 58.4375 138.302 54.1343 138.302 50.6458 134.814 50.6458 130.51 50.6458 126.207 54.1343 122.719 58.4375 122.719 62.7407 122.719 66.2292 126.207 66.2292 130.51Z" stroke="#5B9BD5" stroke-width="1.94792" fill="#5B9BD5" transform="matrix(1 0 0 1.00535 562 82)"/><path d="M74.0208 105.188C74.0208 109.491 70.5324 112.979 66.2292 112.979 61.9259 112.979 58.4375 109.491 58.4375 105.188 58.4375 100.884 61.9259 97.3958 66.2292 97.3958 70.5324 97.3958 74.0208 100.884 74.0208 105.188Z" stroke="#5B9BD5" stroke-width="1.94792" fill="#5B9BD5" transform="matrix(1 0 0 1.00535 562 82)"/><path d="M101.292 109.083C101.292 113.387 97.8032 116.875 93.5 116.875 89.1968 116.875 85.7083 113.387 85.7083 109.083 85.7083 104.78 89.1968 101.292 93.5 101.292 97.8032 101.292 101.292 104.78 101.292 109.083Z" stroke="#5B9BD5" stroke-width="1.94792" fill="#5B9BD5" transform="matrix(1 0 0 1.00535 562 82)"/><path d="M101.292 81.8125C101.292 86.1157 97.8032 89.6042 93.5 89.6042 89.1968 89.6042 85.7083 86.1157 85.7083 81.8125 85.7083 77.5093 89.1968 74.0208 93.5 74.0208 97.8032 74.0208 101.292 77.5093 101.292 81.8125Z" stroke="#5B9BD5" stroke-width="1.94792" fill="#5B9BD5" transform="matrix(1 0 0 1.00535 562 82)"/><path d="M126.615 74.0208C126.615 78.3241 123.126 81.8125 118.823 81.8125 114.52 81.8125 111.031 78.3241 111.031 74.0208 111.031 69.7176 114.52 66.2292 118.823 66.2292 123.126 66.2292 126.615 69.7176 126.615 74.0208Z" stroke="#5B9BD5" stroke-width="1.94792" fill="#5B9BD5" transform="matrix(1 0 0 1.00535 562 82)"/><path d="M153.885 74.0208C153.885 78.3241 150.397 81.8125 146.094 81.8125 141.791 81.8125 138.302 78.3241 138.302 74.0208 138.302 69.7176 141.791 66.2292 146.094 66.2292 150.397 66.2292 153.885 69.7176 153.885 74.0208Z" stroke="#5B9BD5" stroke-width="1.94792" fill="#5B9BD5" transform="matrix(1 0 0 1.00535 562 82)"/><path d="M153.885 44.8021C153.885 49.1053 150.397 52.5938 146.094 52.5938 141.791 52.5938 138.302 49.1053 138.302 44.8021 138.302 40.4989 141.791 37.0104 146.094 37.0104 150.397 37.0104 153.885 40.4989 153.885 44.8021Z" stroke="#5B9BD5" stroke-width="1.94792" fill="#5B9BD5" transform="matrix(1 0 0 1.00535 562 82)"/></g></svg>