<svg width="188" height="188" xmlns="http://www.w3.org/2000/svg" xmlns:xlink="http://www.w3.org/1999/xlink" xml:space="preserve" overflow="hidden"><g transform="translate(-418 -140)"><path d="M457.167 167.417 445.417 167.417 445.417 300.583 578.583 300.583 578.583 288.833 457.167 288.833 457.167 167.417Z" stroke="#5B9BD5" stroke-width="1.95833" fill="#5B9BD5"/><path d="M577.124 262.742C570.296 262.985 552.075 263.635 548.337 226.615 545.292 196.331 537.478 183.41 522.242 183.41 507.006 183.41 499.202 196.331 496.138 226.615 492.417 263.635 474.204 262.964 467.36 262.742 466.79 262.721 466.3 262.705 465.901 262.705L465.901 274.455C466.185 274.455 466.535 274.469 466.943 274.485 467.558 274.506 468.165 274.516 468.768 274.516 491.563 274.516 504.705 258.808 507.837 227.796 511.13 195.16 519.195 195.16 522.242 195.16 525.289 195.16 533.354 195.16 536.648 227.796 539.863 259.629 553.599 275.264 577.543 274.485 577.949 274.469 578.297 274.455 578.583 274.455L578.583 262.705C578.192 262.705 577.694 262.721 577.124 262.742Z" stroke="#5B9BD5" stroke-width="1.95833" fill="#5B9BD5"/><path d="M520.284 224.535 524.2 224.535 524.2 234.327 520.284 234.327Z" stroke="#5B9BD5" stroke-width="1.95833" fill="#5B9BD5"/><path d="M520.284 242.16 524.2 242.16 524.2 251.952 520.284 251.952Z" stroke="#5B9BD5" stroke-width="1.95833" fill="#5B9BD5"/><path d="M520.284 207.564 524.2 207.564 524.2 217.356 520.284 217.356Z" stroke="#5B9BD5" stroke-width="1.95833" fill="#5B9BD5"/><path d="M520.284 259.785 524.2 259.785 524.2 269.25 520.284 269.25Z" stroke="#5B9BD5" stroke-width="1.95833" fill="#5B9BD5"/></g></svg>