<svg width="188" height="187" xmlns="http://www.w3.org/2000/svg" xmlns:xlink="http://www.w3.org/1999/xlink" xml:space="preserve" overflow="hidden"><g transform="translate(-208 -73)"><path d="M142.198 159.729 44.8021 159.729 44.8021 38.9583 66.2292 38.9583 66.2292 50.6458 120.771 50.6458 120.771 38.9583 142.198 38.9583ZM93.5 23.375C96.7275 23.375 99.3438 25.9912 99.3438 29.2188 99.3438 32.4463 96.7275 35.0625 93.5 35.0625 90.2725 35.0625 87.6562 32.4463 87.6562 29.2188 87.6031 26.0444 90.1332 23.4282 93.3075 23.375 93.3716 23.3738 93.4359 23.3738 93.5 23.375ZM146.094 27.2708 112.979 27.2708 112.979 23.375C112.979 19.0718 109.491 15.5833 105.188 15.5833L81.8125 15.5833C77.5094 15.5833 74.0208 19.0718 74.0208 23.375L74.0208 27.2708 40.9062 27.2708C36.6031 27.2708 33.1146 30.7594 33.1146 35.0625L33.1146 163.625C33.1146 167.928 36.6031 171.417 40.9062 171.417L146.094 171.417C150.397 171.417 153.885 167.928 153.885 163.625L153.885 35.0625C153.885 30.7594 150.397 27.2708 146.094 27.2708Z" stroke="#5B9BD5" stroke-width="1.94792" fill="#5B9BD5" transform="matrix(1.00535 0 0 1 208 73)"/><path d="M79.9834 111.15 75.8499 107.017 70.125 112.743 64.4001 107.017 60.2666 111.15 65.9935 116.875 60.2666 122.6 64.4001 126.733 70.125 121.007 75.8499 126.733 79.9834 122.6 74.2565 116.875 79.9834 111.15Z" stroke="#5B9BD5" stroke-width="1.94792" fill="#5B9BD5" transform="matrix(1.00535 0 0 1 208 73)"/><path d="M75.8499 130.392 70.125 136.118 64.4001 130.392 60.2666 134.525 65.9935 140.25 60.2666 145.975 64.4001 150.108 70.125 144.382 75.8499 150.108 79.9834 145.975 74.2565 140.25 79.9834 134.525 75.8499 130.392Z" stroke="#5B9BD5" stroke-width="1.94792" fill="#5B9BD5" transform="matrix(1.00535 0 0 1 208 73)"/><path d="M97.3958 112.979 130.51 112.979 130.51 120.771 97.3958 120.771Z" stroke="#5B9BD5" stroke-width="1.94792" fill="#5B9BD5" transform="matrix(1.00535 0 0 1 208 73)"/><path d="M97.3958 136.354 130.51 136.354 130.51 144.146 97.3958 144.146Z" stroke="#5B9BD5" stroke-width="1.94792" fill="#5B9BD5" transform="matrix(1.00535 0 0 1 208 73)"/><path d="M97.3958 66.2292 130.51 66.2292 130.51 74.0208 97.3958 74.0208Z" stroke="#5B9BD5" stroke-width="1.94792" fill="#5B9BD5" transform="matrix(1.00535 0 0 1 208 73)"/><path d="M97.3958 89.6042 130.51 89.6042 130.51 97.3958 97.3958 97.3958Z" stroke="#5B9BD5" stroke-width="1.94792" fill="#5B9BD5" transform="matrix(1.00535 0 0 1 208 73)"/><path d="M57.8668 69.7354 61.9437 65.6584 67.0083 70.723 79.8646 57.8668 83.9416 61.9437 67.0083 78.877 57.8668 69.7354Z" stroke="#5B9BD5" stroke-width="1.94792" fill="#5B9BD5" transform="matrix(1.00535 0 0 1 208 73)"/><path d="M57.8668 93.1104 61.9437 89.0334 67.0083 94.098 79.8646 81.2418 83.9416 85.3187 67.0083 102.252 57.8668 93.1104Z" stroke="#5B9BD5" stroke-width="1.94792" fill="#5B9BD5" transform="matrix(1.00535 0 0 1 208 73)"/></g></svg>