<svg width="187" height="188" xmlns="http://www.w3.org/2000/svg" xmlns:xlink="http://www.w3.org/1999/xlink" xml:space="preserve" overflow="hidden"><g transform="translate(-674 -236)"><path d="M93.5097 48.6979C68.7663 48.6979 48.7077 68.7566 48.7077 93.5 48.7077 118.243 68.7663 138.302 93.5097 138.302 118.253 138.302 138.312 118.243 138.312 93.5 138.284 68.7681 118.242 48.7258 93.5097 48.6979ZM87.1401 111.74 67.6161 92.2144 74.2507 85.5798 87.1401 98.4691 113.538 72.0729 120.173 78.7075Z" stroke="#5B9BD5" stroke-width="1.94792" fill="#5B9BD5" transform="matrix(1 0 0 1.00535 674 236)"/><path d="M159.973 95.9641C158.802 94.5301 158.802 92.4699 159.973 91.0359L164.772 85.1551C166.134 83.4889 165.887 81.0347 164.22 79.6733 164.107 79.5804 163.988 79.4941 163.865 79.4146L157.481 75.3045C155.925 74.3029 155.289 72.3448 155.958 70.6198L158.706 63.541C159.486 61.5355 158.491 59.278 156.486 58.4989 156.35 58.4461 156.21 58.4007 156.069 58.3635L148.727 56.4272C146.938 55.9555 145.727 54.2896 145.831 52.4418L146.257 44.8605C146.378 42.7124 144.734 40.8729 142.586 40.7524 142.441 40.7442 142.295 40.7442 142.149 40.7524L134.568 41.179C132.72 41.2826 131.054 40.072 130.582 38.2824L128.646 30.9407C128.097 28.8603 125.966 27.6189 123.885 28.1678 123.744 28.2051 123.605 28.2502 123.469 28.3032L116.39 31.0517C114.665 31.721 112.707 31.0843 111.705 29.5285L107.595 23.1451C106.43 21.3361 104.02 20.8139 102.21 21.9787 102.087 22.0582 101.968 22.1445 101.855 22.2374L95.9739 27.0371C94.5398 28.2082 92.4797 28.2082 91.0456 27.0371L85.1649 22.2374C83.4986 20.876 81.0444 21.1232 79.683 22.7893 79.5901 22.903 79.5038 23.0218 79.4243 23.1451L75.3143 29.5285C74.3126 31.0843 72.3546 31.721 70.6295 31.0517L63.5508 28.3032C61.5452 27.5241 59.2878 28.5185 58.5086 30.524 58.4558 30.6602 58.4104 30.7993 58.3732 30.9407L56.437 38.2824C55.9652 40.072 54.2993 41.2826 52.4515 41.179L44.8703 40.7524C42.7221 40.6318 40.8827 42.2754 40.7621 44.4236 40.7539 44.5691 40.7539 44.715 40.7621 44.8605L41.1887 52.4418C41.2923 54.2896 40.0817 55.9555 38.2921 56.4272L30.9504 58.3635C28.8701 58.9124 27.6287 61.044 28.1776 63.1244 28.2148 63.2656 28.26 63.4049 28.313 63.541L31.0615 70.6198C31.7308 72.345 31.094 74.3029 29.5382 75.3045L23.1549 79.4146C21.3455 80.5787 20.8223 82.9894 21.9863 84.7989 22.0658 84.9223 22.1523 85.0414 22.2452 85.1551L27.0468 91.0359C28.2179 92.4699 28.2179 94.5301 27.0468 95.9641L22.2452 101.845C20.8842 103.511 21.132 105.966 22.7986 107.326 22.9124 107.419 23.0314 107.506 23.1549 107.585L29.5382 111.695C31.094 112.697 31.7308 114.655 31.0615 116.38L28.313 123.459C27.5338 125.465 28.5282 127.722 30.5338 128.501 30.6699 128.554 30.809 128.599 30.9504 128.637L38.2921 130.573C40.0817 131.045 41.2923 132.71 41.1887 134.558L40.7621 142.139C40.6415 144.288 42.2852 146.127 44.4333 146.248 44.5789 146.256 44.7248 146.256 44.8703 146.248L52.4515 145.821C54.2993 145.717 55.9652 146.928 56.437 148.718L58.3732 156.059C58.9221 158.14 61.0537 159.381 63.1341 158.832 63.2753 158.795 63.4146 158.75 63.5508 158.697L70.6295 155.948C72.3546 155.279 74.3126 155.916 75.3143 157.472L79.4243 163.855C80.5892 165.664 82.9999 166.186 84.809 165.021 84.9325 164.942 85.0513 164.855 85.1649 164.763L91.0456 159.963C92.4797 158.792 94.5398 158.792 95.9739 159.963L101.855 164.763C103.521 166.124 105.975 165.877 107.336 164.211 107.429 164.097 107.516 163.978 107.595 163.855L111.705 157.472C112.707 155.916 114.665 155.279 116.39 155.948L123.469 158.697C125.474 159.476 127.732 158.482 128.511 156.476 128.564 156.34 128.609 156.201 128.646 156.059L130.582 148.718C131.054 146.928 132.72 145.717 134.568 145.821L142.149 146.248C144.297 146.368 146.137 144.725 146.257 142.576 146.266 142.431 146.266 142.285 146.257 142.139L145.831 134.558C145.727 132.71 146.938 131.045 148.727 130.573L156.069 128.637C158.149 128.088 159.391 125.956 158.842 123.876 158.805 123.734 158.759 123.595 158.706 123.459L155.958 116.38C155.289 114.655 155.925 112.697 157.481 111.695L163.865 107.585C165.674 106.421 166.196 104.01 165.031 102.201 164.952 102.077 164.865 101.958 164.772 101.845ZM93.5097 144.146C65.5388 144.146 42.8639 121.471 42.8639 93.5 42.8639 65.5291 65.5388 42.8542 93.5097 42.8542 121.481 42.8542 144.156 65.5291 144.156 93.5 144.124 121.458 121.468 144.115 93.5097 144.146Z" stroke="#5B9BD5" stroke-width="1.94792" fill="#5B9BD5" transform="matrix(1 0 0 1.00535 674 236)"/></g></svg>