<svg width="1525" height="529" xmlns="http://www.w3.org/2000/svg" xmlns:xlink="http://www.w3.org/1999/xlink" xml:space="preserve" overflow="hidden"><g transform="translate(-760 -982)"><path d="M815 992 1074.84 1251.84" stroke="#4472C4" stroke-width="27.5" stroke-miterlimit="8" fill="none" fill-rule="evenodd"/><path d="M0 0 259.843 259.843" stroke="#4472C4" stroke-width="27.5" stroke-miterlimit="8" fill="none" fill-rule="evenodd" transform="matrix(-1 0 0 1 1074.84 1237)"/><path d="M0 0 259.843 259.843" stroke="#4472C4" stroke-width="27.5" stroke-miterlimit="8" fill="none" fill-rule="evenodd" transform="matrix(1 0 0 -1 1300 1496.84)"/><path d="M1801 992 2060.84 1251.84" stroke="#4472C4" stroke-width="27.5" stroke-miterlimit="8" fill="none" fill-rule="evenodd"/><path d="M1300 992 1559.84 1251.84" stroke="#4472C4" stroke-width="27.5" stroke-miterlimit="8" fill="none" fill-rule="evenodd"/><path d="M0 0 259.843 259.843" stroke="#4472C4" stroke-width="27.5" stroke-miterlimit="8" fill="none" fill-rule="evenodd" transform="matrix(1 0 0 -1 1801 1496.84)"/><path d="M760 1223.25 2131.25 1223.25 2131.25 1250.75 760 1250.75ZM2117.5 1195.75 2200 1237 2117.5 1278.25Z" fill="#4472C4"/></g></svg>