<svg width="188" height="188" xmlns="http://www.w3.org/2000/svg" xmlns:xlink="http://www.w3.org/1999/xlink" xml:space="preserve" overflow="hidden"><g transform="translate(-273 -310)"><path d="M414.979 433.571C411.846 430.438 407.146 428.871 402.838 429.85L394.025 421.233C401.858 411.05 406.167 398.517 406.167 385.592 406.362 352.888 379.925 326.45 347.417 326.254 314.908 326.058 288.471 352.496 288.275 385.004 288.079 417.513 314.517 443.95 347.025 444.146 359.95 444.146 372.679 439.838 383.058 432.004L391.675 440.621C390.892 445.125 392.263 449.629 395.396 452.958L419.875 477.438C425.162 482.725 433.975 482.725 439.263 477.438 444.55 472.15 444.55 463.338 439.263 458.05L414.979 433.571ZM347.417 432.396C321.371 432.396 300.417 411.442 300.417 385.396 300.417 359.35 321.371 338.396 347.417 338.396 373.462 338.396 394.417 359.35 394.417 385.396 394.417 411.246 373.267 432.396 347.417 432.396Z" stroke="#5B9BD5" stroke-width="1.95833" fill="#5B9BD5"/><path d="M389.521 382.458 378.358 382.458C377.379 382.654 376.4 383.242 375.812 384.025L368.371 392.054 362.104 370.317C361.517 368.554 359.558 367.379 357.796 367.967 356.817 368.358 355.837 368.946 355.446 370.121L343.696 401.258 335.667 358.175C335.275 356.217 333.513 355.042 331.75 355.433 330.575 355.629 329.596 356.608 329.008 357.783L320.587 382.458 305.312 382.458 305.312 390.292 323.133 390.292C324.7 390.096 326.071 388.921 326.462 387.354L331.358 372.471 339.192 414.575C339.388 416.142 340.758 417.317 342.325 417.317L342.717 417.317C344.087 417.317 345.458 416.533 346.046 415.163L358.579 382.263 363.671 399.888C364.258 401.65 366.021 402.825 367.979 402.237 368.567 402.042 369.154 401.65 369.546 401.258L380.121 390.292 389.717 390.292 389.717 382.458Z" stroke="#5B9BD5" stroke-width="1.95833" fill="#5B9BD5"/></g></svg>