<svg width="96" height="96" xmlns="http://www.w3.org/2000/svg" xmlns:xlink="http://www.w3.org/1999/xlink" xml:space="preserve" overflow="hidden"><g transform="translate(-422 -424)"><path d="M442 438 436 438 436 506 504 506 504 500 442 500 442 438Z"/><path d="M456 491C456 493.209 454.209 495 452 495 449.791 495 448 493.209 448 491 448 488.791 449.791 487 452 487 454.209 487 456 488.791 456 491Z"/><path d="M460 478C460 480.209 458.209 482 456 482 453.791 482 452 480.209 452 478 452 475.791 453.791 474 456 474 458.209 474 460 475.791 460 478Z"/><path d="M474 480C474 482.209 472.209 484 470 484 467.791 484 466 482.209 466 480 466 477.791 467.791 476 470 476 472.209 476 474 477.791 474 480Z"/><path d="M474 466C474 468.209 472.209 470 470 470 467.791 470 466 468.209 466 466 466 463.791 467.791 462 470 462 472.209 462 474 463.791 474 466Z"/><path d="M487 462C487 464.209 485.209 466 483 466 480.791 466 479 464.209 479 462 479 459.791 480.791 458 483 458 485.209 458 487 459.791 487 462Z"/><path d="M501 462C501 464.209 499.209 466 497 466 494.791 466 493 464.209 493 462 493 459.791 494.791 458 497 458 499.209 458 501 459.791 501 462Z"/><path d="M501 447C501 449.209 499.209 451 497 451 494.791 451 493 449.209 493 447 493 444.791 494.791 443 497 443 499.209 443 501 444.791 501 447Z"/></g></svg>