<svg width="96" height="96" xmlns="http://www.w3.org/2000/svg" xmlns:xlink="http://www.w3.org/1999/xlink" xml:space="preserve" overflow="hidden"><g transform="translate(-293 -375)"><path d="M378.5 450.6 366 438.1C364.3 436.4 362 435.8 359.8 436.2L355.4 431.8C359.3 426.8 361.6 420.4 361.6 413.6 361.6 397.1 348.1 383.6 331.6 383.6 315.1 383.6 301.6 397.1 301.6 413.6 301.6 430.1 315.1 443.6 331.6 443.6 338.4 443.6 344.7 441.3 349.8 437.4L354.2 441.8C353.8 444 354.4 446.3 356.1 448L368.6 460.5C370 461.9 371.8 462.6 373.6 462.6 375.4 462.6 377.2 461.9 378.6 460.5 381.2 457.7 381.2 453.3 378.5 450.6ZM331.5 437.5C318.3 437.5 307.5 426.7 307.5 413.5 307.5 400.3 318.3 389.5 331.5 389.5 344.7 389.5 355.5 400.3 355.5 413.5 355.5 426.7 344.7 437.5 331.5 437.5Z"/></g></svg>