<svg width="96" height="96" xmlns="http://www.w3.org/2000/svg" xmlns:xlink="http://www.w3.org/1999/xlink" xml:space="preserve" overflow="hidden"><g transform="translate(-75 -213)"><path d="M147.5 276.1C145.9 274.5 143.5 273.7 141.3 274.2L136.8 269.8C140.8 264.6 143 258.2 143 251.6 143.1 234.9 129.6 221.4 113 221.3 96.4 221.2 82.9 234.7 82.8 251.3 82.7 267.9 96.2 281.4 112.8 281.5 119.4 281.5 125.9 279.3 131.2 275.3L135.6 279.7C135.2 282 135.9 284.3 137.5 286L150 298.5C152.7 301.2 157.2 301.2 159.9 298.5 162.6 295.8 162.6 291.3 159.9 288.6L147.5 276.1ZM113 275.5C99.7 275.5 89 264.8 89 251.5 89 238.2 99.7 227.5 113 227.5 126.3 227.5 137 238.2 137 251.5 137 264.7 126.2 275.5 113 275.5Z" fill="#002060"/><path d="M134.5 250 128.8 250C128.3 250.1 127.8 250.4 127.5 250.8L123.7 254.9 120.5 243.8C120.2 242.9 119.2 242.3 118.3 242.6 117.8 242.8 117.3 243.1 117.1 243.7L111.1 259.6 107 237.6C106.8 236.6 105.9 236 105 236.2 104.4 236.3 103.9 236.8 103.6 237.4L99.3 250 91.5 250 91.5 254 100.6 254C101.4 253.9 102.1 253.3 102.3 252.5L104.8 244.9 108.8 266.4C108.9 267.2 109.6 267.8 110.4 267.8L110.6 267.8C111.3 267.8 112 267.4 112.3 266.7L118.7 249.9 121.3 258.9C121.6 259.8 122.5 260.4 123.5 260.1 123.8 260 124.1 259.8 124.3 259.6L129.7 254 134.6 254 134.6 250Z" fill="#002060"/></g></svg>