<svg width="345" height="346" xmlns="http://www.w3.org/2000/svg" xmlns:xlink="http://www.w3.org/1999/xlink" xml:space="preserve" overflow="hidden"><g transform="translate(-146 -29)"><path d="M244.375 108.531C235.75 108.531 228.562 101.344 228.922 92.3594 228.922 83.7344 236.109 76.5469 244.734 76.5469 253.359 76.5469 260.547 83.7344 260.547 92.3594 260.547 96.6719 258.75 100.625 255.875 103.5 252.641 106.734 248.687 108.531 244.375 108.531ZM228.922 58.5781C221.016 61.4531 214.906 67.5625 210.953 74.75 205.922 84.4531 205.203 95.5938 209.156 105.656L226.406 143.031 237.906 166.75C238.984 169.266 241.5 170.703 244.375 170.703 247.25 170.703 249.766 169.266 250.844 166.75L262.344 143.031 279.594 106.016C281.391 101.703 282.109 97.0312 282.109 92.3594 282.109 67.2031 256.234 48.1562 228.922 58.5781Z" stroke="#156082" stroke-width="3.59375" fill="#156082" transform="matrix(1 0 0 1.0029 146 29)"/><path d="M165.312 261.625 107.812 232.875 107.812 115.719 165.312 144.469 165.312 261.625ZM93.4375 232.875 50.3125 254.438 50.3125 137.281 93.4375 115.719 93.4375 232.875ZM292.531 112.125 292.531 112.125 283.547 131.531 294.688 137.281 294.688 254.438 251.562 232.875 251.562 185.078 237.188 185.078 237.188 232.875 179.688 261.625 179.688 144.469 205.203 131.531 196.219 112.125 172.5 123.984 100.625 88.0469 28.75 123.984 28.75 289.297 100.625 253.359 172.5 289.297 244.375 253.359 316.25 289.297 316.25 123.984 292.531 112.125Z" stroke="#156082" stroke-width="3.59375" fill="#156082" transform="matrix(1 0 0 1.0029 146 29)"/></g></svg>