<svg width="96" height="96" xmlns="http://www.w3.org/2000/svg" xmlns:xlink="http://www.w3.org/1999/xlink" xml:space="preserve" overflow="hidden"><g transform="translate(-767 -342)"><path d="M837 408C833.354 408.003 830.171 410.47 829.26 414L817 414 817 397.74C821.275 396.623 823.834 392.252 822.717 387.977 821.985 385.178 819.799 382.992 817 382.26L817 362 800.74 362C799.635 357.722 795.272 355.15 790.994 356.254 786.716 357.359 784.143 361.722 785.248 366 786.353 370.278 790.716 372.85 794.994 371.746 797.812 371.018 800.012 368.818 800.74 366L813 366 813 382.26C808.725 383.377 806.166 387.748 807.283 392.023 808.015 394.822 810.201 397.008 813 397.74L813 418 829.26 418C830.365 422.278 834.728 424.85 839.006 423.746 843.284 422.641 845.857 418.278 844.752 414 843.839 410.466 840.65 407.997 837 408Z"/></g></svg>