<svg width="346" height="346" xmlns="http://www.w3.org/2000/svg" xmlns:xlink="http://www.w3.org/1999/xlink" xml:space="preserve" overflow="hidden"><g transform="translate(-860 -46)"><path d="M1051.02 71.2292C1051.02 77.2007 1046.18 82.0417 1040.21 82.0417 1034.24 82.0417 1029.4 77.2007 1029.4 71.2292 1029.4 65.2576 1034.24 60.4167 1040.21 60.4167 1046.18 60.4167 1051.02 65.2576 1051.02 71.2292Z" stroke="#156082" stroke-width="3.60417" fill="#156082"/><path d="M1069.04 103.667C1069.04 109.638 1064.2 114.479 1058.23 114.479 1052.26 114.479 1047.42 109.638 1047.42 103.667 1047.42 97.6951 1052.26 92.8542 1058.23 92.8542 1064.2 92.8542 1069.04 97.6951 1069.04 103.667Z" stroke="#156082" stroke-width="3.60417" fill="#156082"/><path d="M1029.4 96.4583C1029.4 102.43 1024.55 107.271 1018.58 107.271 1012.61 107.271 1007.77 102.43 1007.77 96.4583 1007.77 90.4868 1012.61 85.6458 1018.58 85.6458 1024.55 85.6458 1029.4 90.4868 1029.4 96.4583Z" stroke="#156082" stroke-width="3.60417" fill="#156082"/><path d="M1040.21 136.104C1040.21 144.066 1033.75 150.521 1025.79 150.521 1017.83 150.521 1011.38 144.066 1011.38 136.104 1011.38 128.142 1017.83 121.688 1025.79 121.688 1033.75 121.688 1040.21 128.142 1040.21 136.104Z" stroke="#156082" stroke-width="3.60417" fill="#156082"/><path d="M1103.28 347.308 1061.83 253.6 1061.83 190.167C1061.83 177.192 1072.29 171.785 1072.65 171.425 1076.25 169.623 1077.69 165.298 1075.89 161.694 1074.45 159.171 1071.93 157.729 1069.04 157.729L1069.04 157.729 996.958 157.729 996.958 157.729C994.075 157.729 991.552 159.171 990.11 161.694 988.308 165.298 989.75 169.623 993.354 171.425 993.354 171.425 1004.17 177.192 1004.17 190.167L1004.17 253.6 962.719 347.308C959.835 354.156 960.556 361.725 964.521 367.852 968.485 373.979 975.333 377.583 982.542 377.583L1083.46 377.583C1090.67 377.583 1097.51 373.979 1101.48 367.852 1105.44 361.725 1106.16 354.156 1103.28 347.308ZM1047.42 190.167 1047.42 204.583 1018.58 204.583 1018.58 190.167C1018.58 182.598 1016.42 176.831 1013.9 172.146L1052.46 172.146C1049.58 176.831 1047.42 182.598 1047.42 190.167Z" stroke="#156082" stroke-width="3.60417" fill="#156082"/></g></svg>