<svg width="96" height="96" xmlns="http://www.w3.org/2000/svg" xmlns:xlink="http://www.w3.org/1999/xlink" xml:space="preserve" overflow="hidden"><g transform="translate(-90 -351)"><path d="M178 430 178 374 174 374 174 383 168 383 168 369C168 366.9 168.4 366.1 168.5 365.9 169.4 365.7 170 364.9 170 363.9 170 362.8 169.1 361.9 168 362L168 362 152.1 362C151 361.9 150.1 362.8 150 363.9 150 364.8 150.6 365.6 151.5 365.9 151.6 366.1 152 366.9 152 369L152 383 146 383 146 369C146 366.9 146.4 366.1 146.5 365.9 147.4 365.7 148 364.9 148 363.9 148 362.8 147.1 361.9 146 362L146 362 130.1 362C129 361.9 128.1 362.8 128 363.9 128 364.8 128.6 365.6 129.5 365.9 129.6 366.1 130 366.9 130 369L130 383 124 383 124 369C124 366.9 124.4 366.1 124.5 365.9 125.4 365.7 126 364.9 126 363.9 126 362.8 125.1 361.9 124 362L124 362 108.1 362C107 361.9 106.1 362.8 106 363.9 106 364.8 106.6 365.6 107.5 365.9 107.6 366.1 108 366.9 108 369L108 383 102 383 102 374 98 374 98 430 94 430 94 436 182 436 182 430 178 430ZM164.3 366C164.1 366.8 164 367.8 164 369L164 378C164 378 162 377 160 377 158 377 156 378 156 378L156 369C156 367.8 155.9 366.8 155.7 366L164.3 366ZM142.3 366C142.1 366.8 142 367.8 142 369L142 378C142 378 140 377 138 377 136 377 134 378 134 378L134 369C134 367.8 133.9 366.8 133.7 366L142.3 366ZM120.3 366C120.1 366.8 120 367.8 120 369L120 378C120 378 118 377 116 377 114 377 112 378 112 378L112 369C112 367.8 111.9 366.8 111.7 366L120.3 366ZM174 430 102 430 102 387 108 387 108 418C108 422.4 111.6 426 116 426 120.4 426 124 422.4 124 418L124 387 130 387 130 418C130 422.4 133.6 426 138 426 142.4 426 146 422.4 146 418L146 387 152 387 152 418C152 422.4 155.6 426 160 426 164.4 426 168 422.4 168 418L168 387 174 387 174 430Z"/></g></svg>